<mxfile host="Electron" modified="2024-09-09T13:25:24.672Z" agent="Mozilla/5.0 (Windows NT 10.0; Win64; x64) AppleWebKit/537.36 (KHTML, like Gecko) draw.io/22.1.2 Chrome/114.0.5735.289 Electron/25.9.4 Safari/537.36" etag="kRgsukl1pXbd0Md368Pu" version="22.1.2" type="device">
  <diagram name="第 1 页" id="zJN9Uw18O5Tpzwllj_l9">
    <mxGraphModel dx="1343" dy="947" grid="1" gridSize="10" guides="1" tooltips="1" connect="1" arrows="1" fold="1" page="1" pageScale="1" pageWidth="827" pageHeight="1169" math="0" shadow="0">
      <root>
        <mxCell id="0" />
        <mxCell id="1" parent="0" />
        <mxCell id="p3W_tcbggSfsUMDai8Z4-1" value="Web用户" style="shape=umlLifeline;perimeter=lifelinePerimeter;whiteSpace=wrap;html=1;container=1;dropTarget=0;collapsible=0;recursiveResize=0;outlineConnect=0;portConstraint=eastwest;newEdgeStyle={&quot;curved&quot;:0,&quot;rounded&quot;:0};" vertex="1" parent="1">
          <mxGeometry x="40" y="240" width="100" height="630" as="geometry" />
        </mxCell>
        <mxCell id="p3W_tcbggSfsUMDai8Z4-5" value="" style="html=1;points=[[0,0,0,0,5],[0,1,0,0,-5],[1,0,0,0,5],[1,1,0,0,-5]];perimeter=orthogonalPerimeter;outlineConnect=0;targetShapes=umlLifeline;portConstraint=eastwest;newEdgeStyle={&quot;curved&quot;:0,&quot;rounded&quot;:0};" vertex="1" parent="p3W_tcbggSfsUMDai8Z4-1">
          <mxGeometry x="45" y="120" width="10" height="470" as="geometry" />
        </mxCell>
        <mxCell id="p3W_tcbggSfsUMDai8Z4-6" value="选择文件" style="html=1;align=left;spacingLeft=2;endArrow=block;rounded=0;edgeStyle=orthogonalEdgeStyle;curved=0;rounded=0;" edge="1" target="p3W_tcbggSfsUMDai8Z4-5" parent="p3W_tcbggSfsUMDai8Z4-1" source="p3W_tcbggSfsUMDai8Z4-5">
          <mxGeometry relative="1" as="geometry">
            <mxPoint x="95" y="130" as="sourcePoint" />
            <Array as="points">
              <mxPoint x="90" y="120" />
              <mxPoint x="90" y="140" />
            </Array>
          </mxGeometry>
        </mxCell>
        <mxCell id="p3W_tcbggSfsUMDai8Z4-10" value="计算 SHA256" style="html=1;align=left;spacingLeft=2;endArrow=block;rounded=0;edgeStyle=orthogonalEdgeStyle;curved=0;rounded=0;" edge="1" parent="p3W_tcbggSfsUMDai8Z4-1" source="p3W_tcbggSfsUMDai8Z4-5" target="p3W_tcbggSfsUMDai8Z4-5">
          <mxGeometry relative="1" as="geometry">
            <mxPoint x="65" y="180" as="sourcePoint" />
            <Array as="points">
              <mxPoint x="90" y="180" />
              <mxPoint x="90" y="200" />
            </Array>
            <mxPoint x="65" y="200" as="targetPoint" />
          </mxGeometry>
        </mxCell>
        <mxCell id="p3W_tcbggSfsUMDai8Z4-2" value="Java服务" style="shape=umlLifeline;perimeter=lifelinePerimeter;whiteSpace=wrap;html=1;container=1;dropTarget=0;collapsible=0;recursiveResize=0;outlineConnect=0;portConstraint=eastwest;newEdgeStyle={&quot;curved&quot;:0,&quot;rounded&quot;:0};" vertex="1" parent="1">
          <mxGeometry x="280" y="240" width="100" height="630" as="geometry" />
        </mxCell>
        <mxCell id="p3W_tcbggSfsUMDai8Z4-7" value="" style="html=1;points=[[0,0,0,0,5],[0,1,0,0,-5],[1,0,0,0,5],[1,1,0,0,-5]];perimeter=orthogonalPerimeter;outlineConnect=0;targetShapes=umlLifeline;portConstraint=eastwest;newEdgeStyle={&quot;curved&quot;:0,&quot;rounded&quot;:0};" vertex="1" parent="p3W_tcbggSfsUMDai8Z4-2">
          <mxGeometry x="45" y="230" width="10" height="100" as="geometry" />
        </mxCell>
        <mxCell id="p3W_tcbggSfsUMDai8Z4-18" value="" style="html=1;points=[[0,0,0,0,5],[0,1,0,0,-5],[1,0,0,0,5],[1,1,0,0,-5]];perimeter=orthogonalPerimeter;outlineConnect=0;targetShapes=umlLifeline;portConstraint=eastwest;newEdgeStyle={&quot;curved&quot;:0,&quot;rounded&quot;:0};" vertex="1" parent="p3W_tcbggSfsUMDai8Z4-2">
          <mxGeometry x="45" y="480" width="10" height="80" as="geometry" />
        </mxCell>
        <mxCell id="p3W_tcbggSfsUMDai8Z4-22" value="do something" style="html=1;align=left;spacingLeft=2;endArrow=block;rounded=0;edgeStyle=orthogonalEdgeStyle;curved=0;rounded=0;" edge="1" target="p3W_tcbggSfsUMDai8Z4-18" parent="p3W_tcbggSfsUMDai8Z4-2">
          <mxGeometry y="10" relative="1" as="geometry">
            <mxPoint x="55" y="490" as="sourcePoint" />
            <Array as="points">
              <mxPoint x="55" y="500" />
              <mxPoint x="90" y="500" />
              <mxPoint x="90" y="530" />
            </Array>
            <mxPoint x="55" y="510" as="targetPoint" />
            <mxPoint as="offset" />
          </mxGeometry>
        </mxCell>
        <mxCell id="p3W_tcbggSfsUMDai8Z4-3" value="Minio" style="shape=umlLifeline;perimeter=lifelinePerimeter;whiteSpace=wrap;html=1;container=1;dropTarget=0;collapsible=0;recursiveResize=0;outlineConnect=0;portConstraint=eastwest;newEdgeStyle={&quot;curved&quot;:0,&quot;rounded&quot;:0};" vertex="1" parent="1">
          <mxGeometry x="520" y="240" width="100" height="630" as="geometry" />
        </mxCell>
        <mxCell id="p3W_tcbggSfsUMDai8Z4-12" value="" style="html=1;points=[[0,0,0,0,5],[0,1,0,0,-5],[1,0,0,0,5],[1,1,0,0,-5]];perimeter=orthogonalPerimeter;outlineConnect=0;targetShapes=umlLifeline;portConstraint=eastwest;newEdgeStyle={&quot;curved&quot;:0,&quot;rounded&quot;:0};" vertex="1" parent="p3W_tcbggSfsUMDai8Z4-3">
          <mxGeometry x="45" y="260" width="10" height="50" as="geometry" />
        </mxCell>
        <mxCell id="p3W_tcbggSfsUMDai8Z4-15" value="" style="html=1;points=[[0,0,0,0,5],[0,1,0,0,-5],[1,0,0,0,5],[1,1,0,0,-5]];perimeter=orthogonalPerimeter;outlineConnect=0;targetShapes=umlLifeline;portConstraint=eastwest;newEdgeStyle={&quot;curved&quot;:0,&quot;rounded&quot;:0};" vertex="1" parent="p3W_tcbggSfsUMDai8Z4-3">
          <mxGeometry x="45" y="390" width="10" height="60" as="geometry" />
        </mxCell>
        <mxCell id="p3W_tcbggSfsUMDai8Z4-8" value="文件 SHA256" style="html=1;verticalAlign=bottom;endArrow=block;curved=0;rounded=0;entryX=0;entryY=0;entryDx=0;entryDy=5;" edge="1" target="p3W_tcbggSfsUMDai8Z4-7" parent="1" source="p3W_tcbggSfsUMDai8Z4-5">
          <mxGeometry relative="1" as="geometry">
            <mxPoint x="255" y="405" as="sourcePoint" />
          </mxGeometry>
        </mxCell>
        <mxCell id="p3W_tcbggSfsUMDai8Z4-9" value="FormData以及Minio服务器URL等参数" style="html=1;verticalAlign=bottom;endArrow=open;dashed=1;endSize=8;curved=0;rounded=0;exitX=0;exitY=1;exitDx=0;exitDy=-5;" edge="1" source="p3W_tcbggSfsUMDai8Z4-7" parent="1" target="p3W_tcbggSfsUMDai8Z4-5">
          <mxGeometry relative="1" as="geometry">
            <mxPoint x="255" y="475" as="targetPoint" />
          </mxGeometry>
        </mxCell>
        <mxCell id="p3W_tcbggSfsUMDai8Z4-13" value="定义 PostPolicy" style="html=1;verticalAlign=bottom;endArrow=block;curved=0;rounded=0;entryX=0;entryY=0;entryDx=0;entryDy=5;" edge="1" target="p3W_tcbggSfsUMDai8Z4-12" parent="1" source="p3W_tcbggSfsUMDai8Z4-7">
          <mxGeometry relative="1" as="geometry">
            <mxPoint x="495" y="505" as="sourcePoint" />
          </mxGeometry>
        </mxCell>
        <mxCell id="p3W_tcbggSfsUMDai8Z4-14" value="Post请求中需要包含在FormData中的鉴权参数" style="html=1;verticalAlign=bottom;endArrow=open;dashed=1;endSize=8;curved=0;rounded=0;exitX=0;exitY=1;exitDx=0;exitDy=-5;" edge="1" source="p3W_tcbggSfsUMDai8Z4-12" parent="1" target="p3W_tcbggSfsUMDai8Z4-7">
          <mxGeometry relative="1" as="geometry">
            <mxPoint x="495" y="575" as="targetPoint" />
          </mxGeometry>
        </mxCell>
        <mxCell id="p3W_tcbggSfsUMDai8Z4-16" value="Multipart/form-data 类型的 Post 请求" style="html=1;verticalAlign=bottom;endArrow=block;curved=0;rounded=0;entryX=0;entryY=0;entryDx=0;entryDy=5;" edge="1" target="p3W_tcbggSfsUMDai8Z4-15" parent="1" source="p3W_tcbggSfsUMDai8Z4-5">
          <mxGeometry relative="1" as="geometry">
            <mxPoint x="255" y="605" as="sourcePoint" />
          </mxGeometry>
        </mxCell>
        <mxCell id="p3W_tcbggSfsUMDai8Z4-17" value="上传响应（XML格式）" style="html=1;verticalAlign=bottom;endArrow=open;dashed=1;endSize=8;curved=0;rounded=0;exitX=0;exitY=1;exitDx=0;exitDy=-5;" edge="1" source="p3W_tcbggSfsUMDai8Z4-15" parent="1" target="p3W_tcbggSfsUMDai8Z4-5">
          <mxGeometry relative="1" as="geometry">
            <mxPoint x="255" y="675" as="targetPoint" />
          </mxGeometry>
        </mxCell>
        <mxCell id="p3W_tcbggSfsUMDai8Z4-19" value="文件上传成功确认（可选）" style="html=1;verticalAlign=bottom;endArrow=block;curved=0;rounded=0;entryX=0;entryY=0;entryDx=0;entryDy=5;" edge="1" target="p3W_tcbggSfsUMDai8Z4-18" parent="1" source="p3W_tcbggSfsUMDai8Z4-5">
          <mxGeometry relative="1" as="geometry">
            <mxPoint x="255" y="725" as="sourcePoint" />
          </mxGeometry>
        </mxCell>
        <mxCell id="p3W_tcbggSfsUMDai8Z4-20" value="return" style="html=1;verticalAlign=bottom;endArrow=open;dashed=1;endSize=8;curved=0;rounded=0;exitX=0;exitY=1;exitDx=0;exitDy=-5;" edge="1" source="p3W_tcbggSfsUMDai8Z4-18" parent="1" target="p3W_tcbggSfsUMDai8Z4-5">
          <mxGeometry relative="1" as="geometry">
            <mxPoint x="255" y="795" as="targetPoint" />
          </mxGeometry>
        </mxCell>
      </root>
    </mxGraphModel>
  </diagram>
</mxfile>
